<!DOCTYPE svg PUBLIC "-//W3C//DTD SVG 1.1//EN" "http://www.w3.org/Graphics/SVG/1.1/DTD/svg11.dtd">

<!-- Uploaded to: SVG Repo, www.svgrepo.com, Transformed by: SVG Repo Mixer Tools -->
<svg fill="#ffffff" height="100px" width="100px" version="1.1" id="Capa_1" xmlns="http://www.w3.org/2000/svg" xmlns:xlink="http://www.w3.org/1999/xlink" viewBox="0 0 64 64" xml:space="preserve" stroke="#ffffff">
strokeLinejoin=
<g id="SVGRepo_bgCarrier" strokeWidth="0"/>

<g id="SVGRepo_tracerCarrier" strokeLinecap="round" stroke-linejoin="round"/>

<g id="SVGRepo_iconCarrier"> <g> <g id="franchise-cloaning-store-business-chain_1_"> <path d="M22,53h-9c-0.552,0-1,0.447-1,1v5c0,0.553,0.448,1,1,1h9c0.552,0,1-0.447,1-1v-5C23,53.447,22.552,53,22,53z M21,58h-7v-3 h7V58z"/> <path d="M63,38H51.328L35.042,26H44c0.552,0,1-0.447,1-1V9.5V7V1c0-0.553-0.448-1-1-1H19c-0.552,0-1,0.447-1,1v6v2.5V25 c0,0.553,0.448,1,1,1h4h4h1.958L12.672,38H1c-0.552,0-1,0.447-1,1v6v2.5V63c0,0.553,0.448,1,1,1h4h4h17c0.552,0,1-0.447,1-1V47.5 V45v-6c0-0.553-0.448-1-1-1h-9.958L32,26.242L47.958,38H38c-0.552,0-1,0.447-1,1v6v2.5V63c0,0.553,0.448,1,1,1h4h4h17 c0.552,0,1-0.447,1-1V47.5V45v-6C64,38.447,63.552,38,63,38z M25,47.5c0,0.827-0.673,1.5-1.5,1.5S22,48.327,22,47.5V46h3V47.5z M2,46h3v1.5C5,48.327,4.327,49,3.5,49S2,48.327,2,47.5V46z M7,44v-4h3v4H7z M7,46h3v1.5c0,0.827-0.673,1.5-1.5,1.5 S7,48.327,7,47.5V46z M12,46h3v1.5c0,0.827-0.673,1.5-1.5,1.5S12,48.327,12,47.5V46z M17,46h3v1.5c0,0.827-0.673,1.5-1.5,1.5 S17,48.327,17,47.5V46z M17,44v-4h3v4H17z M15,44h-3v-4h3V44z M2,40h3v4H2V40z M6,62v-6c0-0.552,0.449-1,1-1s1,0.448,1,1v6H6z M10,62v-6c0-1.654-1.346-3-3-3s-3,1.346-3,3v6H2V50.649C2.456,50.867,2.961,51,3.5,51c0.98,0,1.864-0.407,2.5-1.058 C6.636,50.593,7.52,51,8.5,51s1.864-0.407,2.5-1.058C11.636,50.593,12.52,51,13.5,51s1.864-0.407,2.5-1.058 C16.636,50.593,17.52,51,18.5,51s1.864-0.407,2.5-1.058C21.636,50.593,22.52,51,23.5,51c0.539,0,1.044-0.133,1.5-0.351V62H10z M25,44h-3v-4h3V44z M20,8h3v1.5c0,0.827-0.673,1.5-1.5,1.5S20,10.327,20,9.5V8z M35,6V2h3v4H35z M33,6h-3V2h3V6z M28,6h-3V2h3V6z M25,8h3v1.5c0,0.827-0.673,1.5-1.5,1.5S25,10.327,25,9.5V8z M30,8h3v1.5c0,0.827-0.673,1.5-1.5,1.5S30,10.327,30,9.5V8z M35,8h3 v1.5c0,0.827-0.673,1.5-1.5,1.5S35,10.327,35,9.5V8z M40,8h3v1.5c0,0.827-0.673,1.5-1.5,1.5S40,10.327,40,9.5V8z M43,6h-3V2h3V6z M20,2h3v4h-3V2z M20,12.649C20.456,12.867,20.961,13,21.5,13c0.98,0,1.864-0.407,2.5-1.058C24.636,12.593,25.52,13,26.5,13 s1.864-0.407,2.5-1.058C29.636,12.593,30.52,13,31.5,13s1.864-0.407,2.5-1.058C34.636,12.593,35.52,13,36.5,13 s1.864-0.407,2.5-1.058C39.636,12.593,40.52,13,41.5,13c0.539,0,1.044-0.133,1.5-0.351V24H28v-6c0-1.654-1.346-3-3-3s-3,1.346-3,3 v6h-2V12.649z M24,24v-6c0-0.552,0.449-1,1-1s1,0.448,1,1v6H24z M62,44h-3v-4h3V44z M62,47.5c0,0.827-0.673,1.5-1.5,1.5 S59,48.327,59,47.5V46h3V47.5z M39,46h3v1.5c0,0.827-0.673,1.5-1.5,1.5S39,48.327,39,47.5V46z M52,40v4h-3v-4H52z M54,44v-4h3v4 H54z M47,44h-3v-4h3V44z M44,46h3v1.5c0,0.827-0.673,1.5-1.5,1.5S44,48.327,44,47.5V46z M49,46h3v1.5c0,0.827-0.673,1.5-1.5,1.5 S49,48.327,49,47.5V46z M54,46h3v1.5c0,0.827-0.673,1.5-1.5,1.5S54,48.327,54,47.5V46z M39,40h3v4h-3V40z M43,62v-6 c0-0.552,0.449-1,1-1s1,0.448,1,1v6H43z M47,62v-6c0-1.654-1.346-3-3-3s-3,1.346-3,3v6h-2V50.649C39.456,50.867,39.961,51,40.5,51 c0.98,0,1.864-0.407,2.5-1.058C43.636,50.593,44.52,51,45.5,51s1.864-0.407,2.5-1.058C48.636,50.593,49.52,51,50.5,51 s1.864-0.407,2.5-1.058C53.636,50.593,54.52,51,55.5,51s1.864-0.407,2.5-1.058C58.636,50.593,59.52,51,60.5,51 c0.539,0,1.044-0.133,1.5-0.351V62H47z"/> <path d="M59,53h-9c-0.552,0-1,0.447-1,1v5c0,0.553,0.448,1,1,1h9c0.552,0,1-0.447,1-1v-5C60,53.447,59.552,53,59,53z M58,58h-7v-3 h7V58z"/> <path d="M31,22h9c0.552,0,1-0.447,1-1v-5c0-0.553-0.448-1-1-1h-9c-0.552,0-1,0.447-1,1v5C30,21.553,30.448,22,31,22z M32,17h7v3 h-7V17z"/> </g> <g id="Layer_1_11_"> </g> </g> </g>

</svg>